<svg width="1024" height="1024" version="1.1" xmlns="http://www.w3.org/2000/svg" desc="Created with imagetracer.js version 1.2.6" ><path fill="rgb(0,0,0)" stroke="rgb(0,0,0)" stroke-width="1" opacity="0" d="M 0 0 L 1024 0 L 1024 1024 L 0 1024 L 0 0 Z M 281 288 L 274 291 Q 268 295 266 303 L 266 690 L 270 699 Q 274 703 281 705 L 744 705 L 751 702 Q 756 698 758 692 L 758 473 L 758 471 L 759 469 L 758 468 L 758 302 L 755 296 Q 751 290 745 288 L 281 288 Z " /><path fill="rgb(0,0,0)" stroke="rgb(0,0,0)" stroke-width="1" opacity="0" d="M 303.5 319 L 338.5 319 L 343 322.5 L 344 324.5 L 344 359.5 L 341.5 364 L 339.5 365 L 303.5 365 L 300 362.5 L 299 360.5 L 299 323.5 L 301.5 320 L 303.5 319 Z " /><path fill="rgb(0,0,0)" stroke="rgb(0,0,0)" stroke-width="1" opacity="0" d="M 685.5 319 L 694.5 319 L 695.5 320 Q 696.7 317.8 701.5 319 L 703.5 319 L 720.5 319 L 724 320 L 726 324.5 L 726 360.5 L 723.5 364 L 721.5 365 L 685.5 365 L 681 361.5 L 681 322.5 L 683.5 320 L 685.5 319 Z " /><path fill="rgb(0,0,0)" stroke="rgb(0,0,0)" stroke-width="1" opacity="0" d="M 302.5 397 L 340.5 397 L 343 399.5 L 344 402.5 L 344 436.5 L 340.5 441 L 338.5 442 L 303.5 442 L 300 439.5 L 299 437.5 L 299 401.5 L 302.5 397 Z " /><path fill="rgb(0,0,0)" stroke="rgb(0,0,0)" stroke-width="1" opacity="0" d="M 684.5 397 L 721.5 397 L 725 399.5 L 726 401.5 L 726 437.5 L 723.5 441 L 720.5 442 L 685.5 442 L 681 438.5 L 681 400.5 L 684.5 397 Z " /><path fill="rgb(0,0,0)" stroke="rgb(0,0,0)" stroke-width="1" opacity="0" d="M 304.5 473 L 338.5 473 L 343 476.5 L 344 478.5 L 344 496.5 L 343 501.5 L 344 502.5 L 344 513.5 L 340.5 518 L 338.5 519 L 303.5 519 L 300 516.5 L 299 514.5 L 299 478.5 L 302.5 474 L 304.5 473 Z " /><path fill="rgb(0,0,0)" stroke="rgb(0,0,0)" stroke-width="1" opacity="0" d="M 686.5 473 L 719.5 473 L 725 476.5 L 726 478.5 L 726 514.5 L 723.5 518 L 721.5 519 L 685.5 519 L 682 516.5 L 681 514.5 L 681 477.5 L 682 475 L 686.5 473 Z " /><path fill="rgb(0,0,0)" stroke="rgb(0,0,0)" stroke-width="1" opacity="0" d="M 303.5 550 L 338.5 550 L 343 553.5 L 344 555.5 L 344 591.5 L 340.5 596 L 302.5 596 L 300 593.5 L 299 591.5 L 299 554.5 L 301 551 L 303.5 550 Z " /><path fill="rgb(0,0,0)" stroke="rgb(0,0,0)" stroke-width="1" opacity="0" d="M 685.5 550 L 720.5 550 L 726 554.5 L 726 591.5 L 722.5 596 L 684.5 596 L 682 595 L 681 592.5 L 681 553.5 L 685.5 550 Z " /><path fill="rgb(0,0,0)" stroke="rgb(0,0,0)" stroke-width="1" opacity="0" d="M 303.5 627 L 339.5 627 L 343 630.5 L 344 633.5 L 344 667.5 L 340.5 673 L 338.5 674 L 303.5 674 L 300 671.5 L 299 669.5 L 299 632.5 L 301.5 628 L 303.5 627 Z " /><path fill="rgb(0,0,0)" stroke="rgb(0,0,0)" stroke-width="1" opacity="0" d="M 685.5 627 L 721.5 627 L 725 629.5 L 726 631.5 L 726 669.5 L 723.5 673 L 721.5 674 L 707.5 674 L 705.5 674 L 685.5 674 L 682 671.5 L 681 669.5 L 681 631.5 L 683.5 628 L 685.5 627 Z " /><path fill="rgb(26,36,49)" stroke="rgb(26,36,49)" stroke-width="1" opacity="0.9921568627450981" d="M 280.5 288 L 744.5 288 Q 751.3 290.3 755 295.5 L 758 301.5 L 758 691.5 Q 755.8 698.3 750.5 702 L 743.5 705 L 280.5 705 Q 273.6 703.5 270 698.5 L 266 689.5 L 266 302.5 Q 268.1 295.1 273.5 291 L 280.5 288 Z M 380 316 L 377 319 L 377 407 L 380 409 L 498 409 L 499 403 L 499 401 Q 498 395 500 394 L 499 391 L 500 388 L 499 384 L 499 382 L 500 380 Q 498 374 499 365 L 500 362 L 499 360 L 499 348 L 500 347 L 499 346 L 499 317 L 497 316 L 380 316 Z M 527 316 L 524 319 L 524 407 L 525 408 L 526 409 L 644 409 L 646 407 L 646 319 L 644 316 L 527 316 Z M 304 319 L 302 320 L 299 324 L 299 361 L 300 363 L 304 365 L 340 365 L 342 364 L 344 360 L 344 325 L 343 323 L 339 319 L 304 319 Z M 686 319 L 684 320 L 681 323 L 681 362 L 686 365 L 722 365 L 724 364 L 726 361 L 726 325 L 724 320 L 721 319 L 686 319 Z M 303 397 L 299 402 L 299 438 L 300 440 L 304 442 L 339 442 L 341 441 L 344 437 L 344 403 L 343 400 L 341 397 L 303 397 Z M 685 397 L 681 401 L 681 439 L 686 442 L 721 442 L 724 441 L 726 438 L 726 402 L 725 400 L 722 397 L 685 397 Z M 511 421 L 505 430 L 490 466 L 489 467 L 433 472 Q 429 473 430 478 L 471 514 L 464 549 L 460 562 Q 459 567 462 568 Q 467 569 470 566 L 512 542 L 559 568 Q 562 569 563 567 L 562 557 L 552 514 L 586 485 L 594 476 L 593 473 L 585 471 L 575 471 L 574 470 L 534 467 L 516 423 Q 515 420 511 421 Z M 305 473 L 303 474 L 299 479 L 299 515 L 300 517 L 304 519 L 339 519 L 341 518 L 344 514 L 344 503 L 343 502 L 344 497 L 344 479 L 343 477 L 339 473 L 305 473 Z M 687 473 L 682 475 L 681 478 L 681 515 L 682 517 L 686 519 L 722 519 L 724 518 L 726 515 L 726 479 L 725 477 L 720 473 L 687 473 Z M 304 550 L 301 551 L 299 555 L 299 592 L 300 594 L 303 596 L 341 596 L 344 592 L 344 556 L 343 554 L 339 550 L 304 550 Z M 686 550 L 681 554 L 681 593 L 682 595 L 685 596 L 723 596 L 726 592 L 726 555 L 721 550 L 686 550 Z M 380 581 L 377 584 L 377 675 L 380 678 L 497 678 L 498 677 L 499 677 L 499 668 L 499 666 L 499 595 L 500 594 L 499 593 L 499 584 L 497 581 L 380 581 Z M 527 581 L 524 584 L 524 676 L 527 678 L 644 678 L 646 676 L 646 584 L 644 581 L 527 581 Z M 304 627 L 302 628 L 299 633 L 299 670 L 300 672 L 304 674 L 339 674 L 341 673 L 344 668 L 344 634 L 343 631 L 340 627 L 304 627 Z M 686 627 L 684 628 L 681 632 L 681 670 L 682 672 L 686 674 L 722 674 L 724 673 L 726 670 L 726 632 L 725 630 L 722 627 L 686 627 Z " /><path fill="rgb(92,93,73)" stroke="rgb(92,93,73)" stroke-width="1" opacity="0.996078431372549" d="M 379.5 316 L 496.5 316 L 499 317 L 499 345.5 L 500 346.5 L 499 347.5 L 499 359.5 L 500 361.5 L 499 364.5 Q 497.5 374 500 379.5 L 499 381.5 L 499 383.5 L 500 387.5 L 499 390.5 L 500 393.5 Q 497.5 395 499 400.5 L 499 402.5 L 498 409 L 379.5 409 L 377 406.5 L 377 318.5 L 379.5 316 Z " /><path fill="rgb(92,93,73)" stroke="rgb(92,93,73)" stroke-width="1" opacity="0.996078431372549" d="M 526.5 316 L 643.5 316 L 646 318.5 L 646 406.5 L 643.5 409 L 525.5 409 L 525 407.5 L 524 406.5 L 524 318.5 L 526.5 316 Z " /><path fill="rgb(92,93,73)" stroke="rgb(92,93,73)" stroke-width="1" opacity="0.996078431372549" d="M 510.5 421 Q 515 420 516 422.5 L 534 467 L 573.5 470 L 574.5 471 L 584.5 471 L 593 473 L 594 475.5 L 585.5 485 L 552 513.5 L 562 556.5 L 563 566.5 Q 562.3 568.8 558.5 568 L 511.5 542 L 469.5 566 Q 467.2 568.7 461.5 568 Q 458.8 566.8 460 561.5 L 464 548.5 L 471 513.5 L 430 477.5 Q 429.3 472.8 432.5 472 L 488.5 467 L 490 465.5 L 505 429.5 L 510.5 421 Z " /><path fill="rgb(92,93,73)" stroke="rgb(92,93,73)" stroke-width="1" opacity="0.996078431372549" d="M 379.5 581 L 496.5 581 L 499 583.5 L 499 592.5 L 500 593.5 L 499 594.5 L 499 665.5 L 499 667.5 L 499 676.5 L 497.5 677 L 496.5 678 L 379.5 678 L 377 674.5 L 377 583.5 L 379.5 581 Z " /><path fill="rgb(92,93,73)" stroke="rgb(92,93,73)" stroke-width="1" opacity="0.996078431372549" d="M 526.5 581 L 643.5 581 L 646 583.5 L 646 675.5 L 643.5 678 L 526.5 678 L 524 675.5 L 524 583.5 L 526.5 581 Z " /></svg>